# xmcd
#
# Track frame offsets:
#	150
#	10658
#	20912
#	30307
#	41744
#	52922
#	65208
#	75047
#	87099
#	98236
#	110523
#	121357
#	135870
#	149344
#	167278
#	179712
#	189676
#	202734
#	214427
#	228244
#	240535
#	250520
#	263828
#	275343
#	286186
#
# Disc length: 3980 seconds
# Revision: 0
# Processed by: cddbd v1.5.2PL0 Copyright (c) Steve Scherf et al.
# Submitted via: dBpowerAMP V12.0
#
DISCID=4e0f8a19
DTITLE=Various Artist - Greetings From Detroit
DYEAR=2012
DGENRE=Soul
TTITLE0=Marv Johnson - Come To Me
TTITLE1=Eddie Holland - Merry-Go-Round
TTITLE2=Barrett Strong - Let's Rock
TTITLE3=Chico Leverett - Solid Sender
TTITLE4=The Swinging Tigers - Snake Walk (Part 1)
TTITLE5=Ron and Bill - It
TTITLE6=The Satintones - Going to the Hop
TTITLE7=Barrett Strong - Money (That's What I Want)
TTITLE8=Nick and The Jaguars - Ich-I-Bon #1
TTITLE9=The Miracles - Bad Girl
TTITLE10=The Satintones - My Beloved
TTITLE11=Eugene Remus - You Never Miss a Good Thing
TTITLE12=The Miracles - Way Over There
TTITLE13=Popcorn and The Mohawks - Custer's Last Man
TTITLE14=Mable John - Who Wouldn't Love a Man Like That?
TTITLE15=Barrett Strong - Whirlwind
TTITLE16=Mary Wells - Bye Bye Baby
TTITLE17=Singin' Sammy Ward - What Makes You Love Him?
TTITLE18=The Miracles - Shop Around
TTITLE19=Singin' Sammy Ward - Who's The Fool?
TTITLE20=Herman Griffin - True Love
TTITLE21=Sherri Taylor and Singin' Sammy Ward - Oh Lover
TTITLE22=Henry Lumpkin - I've Got a Notion
TTITLE23=Jimmy Ruffin - Don't Feel Sorry For Me
TTITLE24=Debbie Dean - Don't Let Him Shop Around
EXTD=
EXTT0=
EXTT1=
EXTT2=
EXTT3=
EXTT4=
EXTT5=
EXTT6=
EXTT7=
EXTT8=
EXTT9=
EXTT10=
EXTT11=
EXTT12=
EXTT13=
EXTT14=
EXTT15=
EXTT16=
EXTT17=
EXTT18=
EXTT19=
EXTT20=
EXTT21=
EXTT22=
EXTT23=
EXTT24=
PLAYORDER=
